<?xml version="1.0" encoding="utf-8"?>
<!-- Generator: Adobe Illustrator 17.1.0, SVG Export Plug-In . SVG Version: 6.00 Build 0)  -->
<!DOCTYPE svg PUBLIC "-//W3C//DTD SVG 1.1//EN" "http://www.w3.org/Graphics/SVG/1.1/DTD/svg11.dtd">
<svg version="1.1" id="Layer_1" xmlns="http://www.w3.org/2000/svg" xmlns:xlink="http://www.w3.org/1999/xlink" x="0px" y="0px"
	 viewBox="0 0 304.7 216.4" enable-background="new 0 0 304.7 216.4" xml:space="preserve">
<g>
	<g>
		<path fill="#14A6D0" d="M7,127.7c-1.3,0-3,1-3-19.2c0-26.6,2.8-25.7,3.7-25.7h14c9.5,0,11,4.4,11,7.9c0,5.9-6.1,9.4-6.1,11.1
			c0,1.9,8.7,6.3,8.7,15.5c0,5.3-3.2,10.4-12,10.4H7z M20.2,98.4c1.6-1.1,3.8-3.8,3.8-6c0-2.6-2.3-3.2-4.3-3.2
			c-5.3,0-7.8,2.3-7.8,10.7c0,1.1-0.1,2.5,1.4,2.5c0.6,0,2-0.6,2.9-1.2L20.2,98.4z M14.6,108.6c-1.5,0.8-2.3,1.1-2.3,2.9
			c0,8.2,2,9.2,6.5,9.2c3.9,0,7.8-1.5,7.8-5.7c0-3.8-4.7-9.2-6.2-9.2c-0.7,0-1.7,0.6-2.3,0.9L14.6,108.6z"/>
		<path fill="#14A6D0" d="M62.9,127.7c-0.5,0-2,0.2-2-0.6c0-1.5,4.2-6.9,4.2-13c0-2.4-2.3-3.3-4.7-3.3c-4.9,0-12.7,0.9-12.7,7
			c0,4.3,3.5,8.8,3.5,9.6c0,0.3-0.3,0.4-1,0.4h-7.7c-2.7,0-3.5-4.9-3.5-11.9c0-23.1,16-33.8,18.4-33.8c1.8,0,15.7,7.7,15.7,32.7
			c0,14.4-2.3,12.9-3.9,12.9H62.9z M48.8,103.7c0,0.6,0.4,1,1,1c1,0,6.2-1.4,10.9-1.4c1.9,0,2.7-0.3,2.7-1.8c0-3.3-4-10.4-6-10.4
			C54.5,91.2,48.8,99.8,48.8,103.7z"/>
		<path fill="#14A6D0" d="M80.3,127.7c-1.3,0-3,1-3-19.2c0-26.6,2.8-25.7,3.7-25.7h14c9.5,0,11,4.4,11,7.9c0,5.9-6.1,9.4-6.1,11.1
			c0,1.9,8.7,6.3,8.7,15.5c0,5.3-3.2,10.4-12,10.4H80.3z M93.5,98.4c1.6-1.1,3.8-3.8,3.8-6c0-2.6-2.3-3.2-4.3-3.2
			c-5.3,0-7.8,2.3-7.8,10.7c0,1.1-0.1,2.5,1.4,2.5c0.6,0,2-0.6,2.9-1.2L93.5,98.4z M87.9,108.6c-1.5,0.8-2.3,1.1-2.3,2.9
			c0,8.2,2,9.2,6.5,9.2c3.9,0,7.8-1.5,7.8-5.7c0-3.8-4.7-9.2-6.2-9.2c-0.7,0-1.7,0.6-2.3,0.9L87.9,108.6z"/>
		<path fill="#14A6D0" d="M141.6,82.8c2.2,0,2.6,0.8,2.6,2.9c0,17-14.2,20.5-14.2,37.5c0,1.2,0.3,2.3,0.3,3.5c0,1.1-1.7,1-2.5,1
			h-6.3c-1.5,0-1.7-2-1.7-3.1c0-6.5,3.6-11.2,3.6-13c0-1.9-12.3-10.4-12.3-24.6c0-4,0.8-4.1,3.2-4.1h4.3c1,0,3.1-0.1,3.1,1.4
			c0,0.4-0.5,3.3-0.5,4.2c0,7.7,5.3,14.7,6.9,14.7c1.6,0,7.7-8.5,7.7-14.9c0-1.7-0.5-4-0.5-4.4c0-1.1,1.4-0.9,2.2-0.9H141.6z"/>
		<path fill="#FF7CA1" d="M162.1,106.5c0-11.7,6.6-24.5,19.7-24.5c4.7,0,11.9,2,11.9,7.8c0,3.1-2.2,4.9-5.6,4.9
			c-2.2,0,0.8-5.1-6.1-5.1c-7.9,0-11.2,8-11.2,14.8c0,10.3,7,14.4,11.7,14.4c8.8,0,9.5-7.9,10-7.9c0.8,0,1.2,4.3,1.2,4.9
			c0,8-6.1,12.6-13.7,12.6C167.8,128.5,162.1,117.4,162.1,106.5z"/>
		<path fill="#FF7CA1" d="M221.4,127.7c-0.5,0-2,0.2-2-0.6c0-1.5,4.2-6.9,4.2-13c0-2.4-2.3-3.3-4.7-3.3c-4.9,0-12.7,0.9-12.7,7
			c0,4.3,3.5,8.8,3.5,9.6c0,0.3-0.3,0.4-1,0.4h-7.7c-2.7,0-3.5-4.9-3.5-11.9c0-23.1,16-33.8,18.4-33.8c1.8,0,15.7,7.7,15.7,32.7
			c0,14.4-2.3,12.9-3.9,12.9H221.4z M207.2,103.7c0,0.6,0.4,1,1,1c1,0,6.2-1.4,10.9-1.4c1.9,0,2.7-0.3,2.7-1.8c0-3.3-4-10.4-6-10.4
			C212.9,91.2,207.2,99.8,207.2,103.7z"/>
		<path fill="#FF7CA1" d="M253.8,82.8c10,0,12.6,5.5,12.6,10.1c0,8.6-8.1,11.3-8.1,12.8c0,1.5,9.7,8.6,9.7,21.3
			c0,0.6-0.2,0.7-1.3,0.7h-6.1c-1,0-2.6,0.2-2.6-0.7c0-6.1-4.3-17-7.4-17c-1.6,0-5.6,2.2-5.6,5.2c0,4.1,2,11.5,2,11.9
			c0,0.9-1.3,0.6-1.9,0.6h-6.3c-1.3,0-3,1-3-19.2c0-26.6,2.8-25.7,3.7-25.7H253.8z M257.6,93.8c0-3.4-3.2-4.6-6.1-4.6
			c-4.9,0-7.1,1.8-7,11.1c0,1.1,0.1,3.3,1.7,3.3C248,103.6,257.6,98.8,257.6,93.8z"/>
		<path fill="#FF7CA1" d="M273.9,127.7c-2.9,0.1-2-1.8-2.3-12.7c0-7.2,3-32.1,4.5-32.1h21.2c0.6,0,2.6-0.2,2.6,0.9
			c0,0.4-3.5,8-4.2,8c-0.9,0-2.5-2.5-7.8-2.5c-3.7,0-7.7,2.2-7.7,7.4c0,1.1,0.2,3.1,1.7,3.1c1.7,0,5.6-2.5,10.1-2.5
			c0.6,0,2.4,0.2,2.4,1.1c0,0.1-3,8.8-3.7,8.8c-0.5,0-2.6-1.1-4.7-1.1c-2.7,0-6.7,2-6.7,7.3c0,4.3,2.3,7.4,6.8,7.4
			c5.3,0,8.6-3.6,9.9-3.6c0.8,0,4.4,9.1,4.4,9.6c0,1-1.3,0.8-2,0.8H273.9z"/>
	</g>
	<path fill="#BADDFF" d="M187.6,141.8c-1.9,17.8-16.9,31.7-35.3,31.7s-33.4-13.9-35.3-31.7c5.9,13.6,19.5,23.2,35.3,23.2
		C168.1,164.9,181.7,155.4,187.6,141.8z"/>
	<g>
		<path fill="#BADDFF" d="M152.3,6.7c-42.8,0-79.5,26.6-94.4,64.1h13c14.2-30.8,45.3-52.2,81.4-52.2c36,0,67.2,21.4,81.4,52.2h13
			C231.8,33.2,195.1,6.7,152.3,6.7z M236.2,139.7c-12.8,33.9-45.5,58.1-83.9,58.1c-38.3,0-71.1-24.2-83.9-58.1H55.8
			c13.3,40.6,51.5,70.1,96.6,70.1c45,0,83.3-29.4,96.6-70.1H236.2z"/>
	</g>
	<g>
		<path fill="#BADDFF" d="M116.6,61.9c8.8,0,17.1,2.3,24.3,6.2c-4.8-8.5-13.9-14.3-24.3-14.3s-19.6,5.8-24.3,14.3
			C99.5,64.2,107.8,61.9,116.6,61.9z"/>
		<path fill="#BADDFF" d="M188,61.9c8.8,0,17.1,2.3,24.3,6.2c-4.8-8.5-13.9-14.3-24.3-14.3c-10.5,0-19.6,5.8-24.3,14.3
			C170.9,64.2,179.2,61.9,188,61.9z"/>
	</g>
</g>
</svg>
